<svg id="948fcf24-d556-4212-978e-945b5ce5e46f" data-name="Layer 1" xmlns="http://www.w3.org/2000/svg" viewBox="0 0 197.44 50.83">
  <defs>
    <style>
      .cc3f0cb2-1dfc-47e6-b408-0a630101eed0 {
        font-size: 36.02px;
        font-family: Kalam-Bold, Kalam;
        font-weight: 700;
      }
    </style>
  </defs>
  <title>dartedmonki</title>
  <text class="cc3f0cb2-1dfc-47e6-b408-0a630101eed0" transform="translate(0 31.7)">DartedM nki</text>
  <path d="M141.87,94.39a5.5,5.5,0,0,0-5.3,4.3,2.4,2.4,0,0,0-.63-.08,1.31,1.31,0,0,0-.88.32,1.52,1.52,0,0,0-.37,1.45,2.61,2.61,0,0,0,.83,1.45,2.2,2.2,0,0,0,1.52.55,5.46,5.46,0,0,0,.75,1.41,4.93,4.93,0,0,0,4.07,1.81h.08a4.93,4.93,0,0,0,4.11-1.82,5.41,5.41,0,0,0,.75-1.42,2.18,2.18,0,0,0,1.5-.55,2.55,2.55,0,0,0,.81-1.45,1.52,1.52,0,0,0-.39-1.43,1.34,1.34,0,0,0-.88-.32,2.37,2.37,0,0,0-.59.07,5.5,5.5,0,0,0-5.31-4.29h-.07Zm1.23,2.43a2.72,2.72,0,0,1,1.5.48,3.24,3.24,0,0,1,1.41,3.06h0a6.35,6.35,0,0,1-1,2.88,3.81,3.81,0,0,1-3.11,1.52h-.06a3.73,3.73,0,0,1-3.12-1.5,6.5,6.5,0,0,1-1-2.9h0a3.14,3.14,0,0,1,1-3,2.92,2.92,0,0,1,3-.15,2,2,0,0,1,1.27-.43Zm0,.65a1.38,1.38,0,0,0-1,.4.34.34,0,0,1-.18.09.33.33,0,0,1-.19,0,2.32,2.32,0,0,0-2.51,0,2.49,2.49,0,0,0-.77,2.36,6,6,0,0,0,.84,2.6,3,3,0,0,0,2.6,1.22,3.08,3.08,0,0,0,2.61-1.24,5.83,5.83,0,0,0,.84-2.59,2.58,2.58,0,0,0-1.13-2.44,2.05,2.05,0,0,0-1.11-.38Zm-2.62,1.77a.8.8,0,1,1-.79.8A.8.8,0,0,1,140.5,99.24Zm3.1,0a.8.8,0,1,1-.79.8A.8.8,0,0,1,143.59,99.24Zm-7.57,0a2,2,0,0,1,.48.09,4.88,4.88,0,0,0,0,.84h0a12.77,12.77,0,0,0,.31,1.52,1.49,1.49,0,0,1-.88-.38,2,2,0,0,1-.62-1.08.9.9,0,0,1,.17-.84.62.62,0,0,1,.39-.15Zm11.72,0a.72.72,0,0,1,.55.15.9.9,0,0,1,.18.84,2,2,0,0,1-.6,1.07,1.47,1.47,0,0,1-.86.38,13.51,13.51,0,0,0,.3-1.52h0a4.89,4.89,0,0,0,0-.86,1.94,1.94,0,0,1,.4-.07ZM142,101a1.16,1.16,0,1,1-1.15,1.16A1.16,1.16,0,0,1,142,101Z" transform="translate(0 -74.58)"/>
</svg>
